<?xml version="1.0" encoding="UTF-8"?>
<svg xmlns="http://www.w3.org/2000/svg" width="480" height="480" viewBox="0 0 3376 3376">
    <path fill-rule="evenodd" fill="black" fill-opacity="1"
          d="M 2034.570312 0.5 C 1899.371094 0.5 1769.628906 54.230469 1674.03125 149.828125 L 171.378906 1652.5 C -56.460938 1880.351562 -56.460938 2251.960938 171.378906 2479.800781 L 896.183594 3204.613281 C 1124.019531 3432.457031 1495.628906 3432.464844 1723.46875 3204.625 L 3226.160156 1701.96875 C 3321.761719 1606.371094 3375.5 1476.621094 3375.5 1341.429688 L 3375.5 254.210938 C 3375.5 114.960938 3261.070312 0.53125 3121.828125 0.53125 Z M 2502.96875 438.308594 C 2614.570312 438.308594 2726.171875 480.679688 2810.890625 565.398438 C 2980.351562 734.839844 2980.339844 1011.769531 2810.890625 1181.210938 C 2641.449219 1350.660156 2364.511719 1350.660156 2195.070312 1181.210938 C 2025.621094 1011.769531 2025.621094 734.839844 2195.070312 565.398438 C 2279.789062 480.679688 2391.378906 438.308594 2502.96875 438.308594 Z"
    />
</svg>